<svg xmlns="http://www.w3.org/2000/svg" xmlns:xlink="http://www.w3.org/1999/xlink" width="500" zoomAndPan="magnify" viewBox="0 0 375 374.999991" height="500" preserveAspectRatio="xMidYMid meet" version="1.0"><defs><g/><clipPath id="e6502cd7b1"><path d="M 141.03125 106.824219 L 234 106.824219 L 234 207.324219 L 141.03125 207.324219 Z M 141.03125 106.824219 " clip-rule="nonzero"/></clipPath><clipPath id="dbb955b32b"><path d="M 182.609375 153.683594 L 192.390625 153.683594 L 192.390625 168.050781 L 182.609375 168.050781 Z M 182.609375 153.683594 " clip-rule="nonzero"/></clipPath><clipPath id="a7f97382e8"><path d="M 0.609375 0.683594 L 10.390625 0.683594 L 10.390625 15.050781 L 0.609375 15.050781 Z M 0.609375 0.683594 " clip-rule="nonzero"/></clipPath><clipPath id="0a71faf702"><rect x="0" width="11" y="0" height="16"/></clipPath><clipPath id="58414a72b3"><path d="M 177 166 L 182 166 L 182 170.695312 L 177 170.695312 Z M 177 166 " clip-rule="nonzero"/></clipPath><clipPath id="6c454c26ab"><path d="M 175.039062 151.195312 L 199.789062 151.195312 L 199.789062 170.695312 L 175.039062 170.695312 Z M 175.039062 151.195312 " clip-rule="nonzero"/></clipPath><clipPath id="bb85e106e3"><path d="M 143 179 L 152 179 L 152 189 L 143 189 Z M 143 179 " clip-rule="nonzero"/></clipPath><clipPath id="649ac50059"><path d="M 143.375 188.308594 L 143.070312 179.3125 L 152.066406 179.011719 L 152.367188 188.007812 Z M 143.375 188.308594 " clip-rule="nonzero"/></clipPath><clipPath id="6b416372b6"><path d="M 143.375 188.308594 L 143.070312 179.3125 L 152.066406 179.011719 L 152.367188 188.007812 Z M 143.375 188.308594 " clip-rule="nonzero"/></clipPath><clipPath id="ac71315cf9"><path d="M 144 179 L 152 179 L 152 189 L 144 189 Z M 144 179 " clip-rule="nonzero"/></clipPath><clipPath id="17054a3925"><path d="M 143.375 188.308594 L 143.070312 179.3125 L 152.066406 179.011719 L 152.367188 188.007812 Z M 143.375 188.308594 " clip-rule="nonzero"/></clipPath><clipPath id="03a013e8e3"><path d="M 143.375 188.308594 L 143.070312 179.3125 L 152.066406 179.011719 L 152.367188 188.007812 Z M 143.375 188.308594 " clip-rule="nonzero"/></clipPath><clipPath id="54c8311eff"><path d="M 148 184 L 151 184 L 151 187 L 148 187 Z M 148 184 " clip-rule="nonzero"/></clipPath><clipPath id="d6363fcddf"><path d="M 143.375 188.308594 L 143.070312 179.3125 L 152.066406 179.011719 L 152.367188 188.007812 Z M 143.375 188.308594 " clip-rule="nonzero"/></clipPath><clipPath id="a37c83166b"><path d="M 143.375 188.308594 L 143.070312 179.3125 L 152.066406 179.011719 L 152.367188 188.007812 Z M 143.375 188.308594 " clip-rule="nonzero"/></clipPath><clipPath id="5cbeffe041"><path d="M 145 180 L 147 180 L 147 183 L 145 183 Z M 145 180 " clip-rule="nonzero"/></clipPath><clipPath id="bfaacc6a3a"><path d="M 143.375 188.308594 L 143.070312 179.3125 L 152.066406 179.011719 L 152.367188 188.007812 Z M 143.375 188.308594 " clip-rule="nonzero"/></clipPath><clipPath id="62a76d3fe4"><path d="M 143.375 188.308594 L 143.070312 179.3125 L 152.066406 179.011719 L 152.367188 188.007812 Z M 143.375 188.308594 " clip-rule="nonzero"/></clipPath><clipPath id="d1e9a31a3b"><path d="M 223 179 L 232 179 L 232 188 L 223 188 Z M 223 179 " clip-rule="nonzero"/></clipPath><clipPath id="2b7dcd4947"><path d="M 222.144531 185.140625 L 226.003906 177.847656 L 233.292969 181.707031 L 229.433594 189 Z M 222.144531 185.140625 " clip-rule="nonzero"/></clipPath><clipPath id="259a16697c"><path d="M 222.144531 185.140625 L 226.003906 177.847656 L 233.292969 181.707031 L 229.433594 189 Z M 222.144531 185.140625 " clip-rule="nonzero"/></clipPath><clipPath id="b8569fc9b3"><path d="M 227 184 L 230 184 L 230 187 L 227 187 Z M 227 184 " clip-rule="nonzero"/></clipPath><clipPath id="ad2fca3bfb"><path d="M 222.144531 185.140625 L 226.003906 177.847656 L 233.292969 181.707031 L 229.433594 189 Z M 222.144531 185.140625 " clip-rule="nonzero"/></clipPath><clipPath id="8b686f446e"><path d="M 222.144531 185.140625 L 226.003906 177.847656 L 233.292969 181.707031 L 229.433594 189 Z M 222.144531 185.140625 " clip-rule="nonzero"/></clipPath><clipPath id="eeda08d7da"><path d="M 226 180 L 228 180 L 228 183 L 226 183 Z M 226 180 " clip-rule="nonzero"/></clipPath><clipPath id="2c06fbbaaa"><path d="M 222.144531 185.140625 L 226.003906 177.847656 L 233.292969 181.707031 L 229.433594 189 Z M 222.144531 185.140625 " clip-rule="nonzero"/></clipPath><clipPath id="9149046453"><path d="M 222.144531 185.140625 L 226.003906 177.847656 L 233.292969 181.707031 L 229.433594 189 Z M 222.144531 185.140625 " clip-rule="nonzero"/></clipPath><clipPath id="796ac5196e"><path d="M 183 109 L 192 109 L 192 119 L 183 119 Z M 183 109 " clip-rule="nonzero"/></clipPath><clipPath id="5dbcba674d"><path d="M 183.066406 109.324219 L 192.066406 109.132812 L 192.253906 118.132812 L 183.253906 118.320312 Z M 183.066406 109.324219 " clip-rule="nonzero"/></clipPath><clipPath id="4cb071a9ab"><path d="M 183.066406 109.324219 L 192.066406 109.132812 L 192.253906 118.132812 L 183.253906 118.320312 Z M 183.066406 109.324219 " clip-rule="nonzero"/></clipPath><clipPath id="7540c0187b"><path d="M 183 110 L 192 110 L 192 118 L 183 118 Z M 183 110 " clip-rule="nonzero"/></clipPath><clipPath id="c52123a88e"><path d="M 183.066406 109.324219 L 192.066406 109.132812 L 192.253906 118.132812 L 183.253906 118.320312 Z M 183.066406 109.324219 " clip-rule="nonzero"/></clipPath><clipPath id="4785be5148"><path d="M 183.066406 109.324219 L 192.066406 109.132812 L 192.253906 118.132812 L 183.253906 118.320312 Z M 183.066406 109.324219 " clip-rule="nonzero"/></clipPath><clipPath id="4cb7a34d41"><path d="M 184 114 L 187 114 L 187 117 L 184 117 Z M 184 114 " clip-rule="nonzero"/></clipPath><clipPath id="20b1a7835a"><path d="M 183.066406 109.324219 L 192.066406 109.132812 L 192.253906 118.132812 L 183.253906 118.320312 Z M 183.066406 109.324219 " clip-rule="nonzero"/></clipPath><clipPath id="463e687761"><path d="M 183.066406 109.324219 L 192.066406 109.132812 L 192.253906 118.132812 L 183.253906 118.320312 Z M 183.066406 109.324219 " clip-rule="nonzero"/></clipPath><clipPath id="26acb70cfd"><path d="M 188 111 L 191 111 L 191 113 L 188 113 Z M 188 111 " clip-rule="nonzero"/></clipPath><clipPath id="41bc8ca90c"><path d="M 183.066406 109.324219 L 192.066406 109.132812 L 192.253906 118.132812 L 183.253906 118.320312 Z M 183.066406 109.324219 " clip-rule="nonzero"/></clipPath><clipPath id="cdd90b0314"><path d="M 183.066406 109.324219 L 192.066406 109.132812 L 192.253906 118.132812 L 183.253906 118.320312 Z M 183.066406 109.324219 " clip-rule="nonzero"/></clipPath></defs><rect x="-37.5" width="450" fill="#ffffff" y="-37.499999" height="449.999989" fill-opacity="1"/><rect x="-37.5" width="450" fill="#030617" y="-37.499999" height="449.999989" fill-opacity="1"/><g clip-path="url(#e6502cd7b1)"><path fill="#ffffff" d="M 173.816406 128.515625 C 160.652344 126.121094 150.246094 128.628906 146.097656 135.8125 C 143 141.175781 143.886719 148.285156 148.242188 155.882812 C 148.613281 156.527344 149.4375 156.753906 150.085938 156.382812 C 150.730469 156.011719 150.953125 155.1875 150.582031 154.539062 C 146.660156 147.695312 145.894531 141.558594 148.433594 137.164062 C 151.878906 131.195312 161.164062 128.957031 173.332031 131.171875 C 174.066406 131.308594 174.769531 130.820312 174.902344 130.085938 C 175.035156 129.355469 174.550781 128.652344 173.816406 128.515625 Z M 193.285156 116.289062 C 192.210938 118.367188 190.042969 119.789062 187.542969 119.789062 C 183.972656 119.789062 181.082031 116.894531 181.082031 113.328125 C 181.082031 109.757812 183.972656 106.867188 187.542969 106.867188 C 191.109375 106.867188 194.003906 109.757812 194.003906 113.328125 C 194.003906 113.417969 194 113.511719 193.996094 113.605469 C 204.691406 119.136719 212.121094 137.996094 212.121094 159.785156 C 212.121094 168.753906 210.871094 177.351562 208.535156 184.808594 C 208.3125 185.519531 207.558594 185.914062 206.847656 185.695312 C 206.136719 185.472656 205.738281 184.714844 205.960938 184.003906 C 208.207031 176.816406 209.425781 168.484375 209.425781 159.789062 C 209.425781 139.273438 202.605469 121.617188 193.285156 116.292969 Z M 147.007812 177.042969 C 147.167969 177.03125 147.328125 177.023438 147.492188 177.023438 C 151.058594 177.023438 153.953125 179.917969 153.953125 183.484375 C 153.953125 187.054688 151.058594 189.949219 147.492188 189.949219 C 143.925781 189.949219 141.03125 187.054688 141.03125 183.484375 C 141.03125 181.058594 142.371094 178.941406 144.351562 177.835938 C 143.378906 165.761719 156.070312 149.574219 175.25 138.503906 C 183.21875 133.902344 191.515625 130.636719 199.308594 128.96875 C 200.039062 128.8125 200.753906 129.273438 200.910156 130.003906 C 201.066406 130.734375 200.601562 131.449219 199.875 131.605469 C 192.363281 133.214844 184.332031 136.378906 176.601562 140.839844 C 158.539062 151.269531 146.59375 166.296875 147.007812 177.042969 Z M 221.882812 186.679688 C 221.347656 185.738281 221.039062 184.648438 221.039062 183.484375 C 221.039062 179.917969 223.929688 177.023438 227.5 177.023438 C 231.066406 177.023438 233.960938 179.917969 233.960938 183.484375 C 233.960938 187.054688 231.066406 189.949219 227.5 189.949219 C 226.09375 189.949219 224.789062 189.496094 223.730469 188.734375 C 213.425781 194.796875 193.738281 191.703125 175.210938 181.011719 C 167.324219 176.453125 160.410156 170.96875 155.085938 165.117188 C 154.585938 164.570312 154.625 163.714844 155.175781 163.210938 C 155.730469 162.710938 156.582031 162.75 157.085938 163.304688 C 162.214844 168.941406 168.910156 174.253906 176.5625 178.667969 C 194.042969 188.765625 212.460938 191.769531 221.882812 186.679688 Z M 221.457031 163.476562 C 220.980469 164.046875 220.125 164.117188 219.554688 163.636719 C 218.988281 163.152344 218.917969 162.300781 219.398438 161.734375 C 227.363281 152.320312 230.050781 143.1875 226.609375 137.234375 C 224.117188 132.910156 218.566406 130.511719 210.871094 130.410156 C 210.125 130.398438 209.527344 129.789062 209.539062 129.042969 C 209.546875 128.296875 210.15625 127.699219 210.90625 127.710938 C 219.460938 127.820312 225.902344 130.605469 228.949219 135.882812 C 233.089844 143.054688 230.078125 153.292969 221.457031 163.476562 Z M 167.371094 187.269531 C 167.117188 186.566406 167.484375 185.792969 168.1875 185.542969 C 168.886719 185.289062 169.660156 185.65625 169.910156 186.355469 C 174.078125 197.992188 180.65625 204.902344 187.542969 204.902344 C 192.492188 204.902344 197.308594 201.351562 201.230469 194.832031 C 201.613281 194.195312 202.441406 193.988281 203.082031 194.371094 C 203.71875 194.753906 203.925781 195.585938 203.542969 196.222656 C 199.183594 203.480469 193.585938 207.601562 187.542969 207.601562 C 179.25 207.601562 171.878906 199.855469 167.371094 187.269531 Z M 231.257812 183.484375 C 231.257812 181.410156 229.574219 179.726562 227.5 179.726562 C 225.421875 179.726562 223.738281 181.410156 223.738281 183.484375 C 223.738281 185.5625 225.421875 187.246094 227.5 187.246094 C 229.574219 187.246094 231.257812 185.5625 231.257812 183.484375 Z M 147.492188 187.246094 C 149.570312 187.246094 151.253906 185.5625 151.253906 183.484375 C 151.253906 181.410156 149.570312 179.726562 147.492188 179.726562 C 145.414062 179.726562 143.730469 181.410156 143.730469 183.484375 C 143.730469 185.5625 145.414062 187.246094 147.492188 187.246094 Z M 187.542969 117.089844 C 189.621094 117.089844 191.304688 115.40625 191.304688 113.328125 C 191.304688 111.25 189.621094 109.566406 187.542969 109.566406 C 185.464844 109.566406 183.78125 111.25 183.78125 113.328125 C 183.78125 115.40625 185.464844 117.089844 187.542969 117.089844 Z M 188.53125 164.359375 C 186.003906 164.902344 183.519531 163.300781 182.972656 160.777344 C 182.429688 158.253906 184.03125 155.765625 186.554688 155.21875 C 189.078125 154.675781 191.566406 156.277344 192.109375 158.800781 C 192.65625 161.324219 191.054688 163.8125 188.53125 164.359375 Z M 188.53125 164.359375 " fill-opacity="1" fill-rule="nonzero"/></g><g clip-path="url(#dbb955b32b)"><g transform="matrix(1, 0, 0, 1, 182, 153)"><g clip-path="url(#0a71faf702)"><g clip-path="url(#a7f97382e8)"><path fill="#030617" d="M 0.609375 0.683594 L 10.390625 0.683594 L 10.390625 15.046875 L 0.609375 15.046875 Z M 0.609375 0.683594 " fill-opacity="1" fill-rule="nonzero"/></g></g></g></g><g clip-path="url(#58414a72b3)"><path fill="#030617" d="M 181.269531 167.820312 C 181.285156 167.914062 181.292969 168.007812 181.292969 168.101562 C 181.292969 169.191406 180.40625 170.078125 179.320312 170.078125 C 178.265625 170.078125 177.410156 169.25 177.351562 168.214844 C 177.34375 168.175781 177.34375 168.140625 177.34375 168.101562 C 177.34375 167.015625 178.230469 166.128906 179.320312 166.128906 C 180.3125 166.128906 181.136719 166.867188 181.269531 167.820312 Z M 181.269531 167.820312 " fill-opacity="1" fill-rule="nonzero"/></g><path fill="#030617" d="M 194.421875 162.097656 C 194.753906 161.648438 195.480469 161.3125 196.035156 161.339844 L 196.039062 161.339844 C 195.796875 163.832031 194.386719 165.984375 192.363281 167.242188 C 192.132812 167.03125 192.335938 166.273438 192.285156 165.96875 C 192.230469 165.617188 192.175781 165.257812 192.207031 164.898438 C 192.242188 164.542969 192.371094 164.179688 192.632812 163.9375 C 192.933594 163.664062 193.363281 163.570312 193.667969 163.300781 C 194.023438 162.984375 194.140625 162.484375 194.421875 162.097656 Z M 194.421875 162.097656 " fill-opacity="1" fill-rule="nonzero"/><path fill="#030617" d="M 186.570312 155.070312 C 186.84375 154.703125 186.578125 154.246094 186.140625 154.285156 C 185.691406 154.320312 185.171875 154.605469 184.835938 154.878906 C 184.433594 155.207031 184.128906 155.636719 183.890625 156.09375 C 183.710938 156.441406 183.570312 156.839844 183.644531 157.222656 C 183.722656 157.609375 184.09375 157.957031 184.480469 157.878906 C 184.773438 157.820312 184.984375 157.542969 185.082031 157.257812 C 185.183594 156.972656 185.207031 156.664062 185.308594 156.378906 C 185.4375 156.003906 185.691406 155.679688 186.023438 155.464844 C 186.214844 155.34375 186.433594 155.25 186.570312 155.070312 Z M 188.105469 154.683594 C 188.414062 154.683594 188.664062 154.433594 188.664062 154.125 C 188.664062 153.816406 188.414062 153.566406 188.105469 153.566406 C 187.800781 153.566406 187.546875 153.816406 187.546875 154.125 C 187.546875 154.433594 187.800781 154.683594 188.105469 154.683594 Z M 180.535156 158.964844 C 181.273438 155.402344 184.433594 152.71875 188.222656 152.71875 C 189.15625 152.71875 190.054688 152.878906 190.886719 153.183594 L 190.882812 153.199219 C 190.816406 153.613281 189.925781 153.980469 189.675781 154.328125 C 189.429688 154.675781 189.175781 155.035156 189.105469 155.453125 C 189.035156 155.867188 189.207031 156.351562 189.605469 156.523438 C 189.878906 156.636719 190.195312 156.585938 190.492188 156.570312 C 190.789062 156.554688 191.128906 156.59375 191.308594 156.820312 C 191.507812 157.066406 191.429688 157.425781 191.542969 157.722656 C 191.609375 157.890625 191.734375 158.03125 191.839844 158.183594 C 192.121094 158.582031 192.269531 159.070312 192.210938 159.546875 C 192.15625 160.027344 191.886719 160.488281 191.464844 160.746094 C 191.066406 160.996094 190.5625 161.054688 190.160156 161.304688 C 189.558594 161.683594 189.320312 162.425781 189.28125 163.117188 C 189.261719 163.414062 189.273438 163.707031 189.285156 164 C 188.253906 164.65625 187.238281 165.246094 186.246094 165.757812 C 186.039062 165.164062 185.960938 164.492188 185.449219 164.125 C 185.160156 163.914062 184.78125 163.847656 184.433594 163.730469 C 184.089844 163.617188 183.730469 163.410156 183.640625 163.070312 C 183.558594 162.765625 183.703125 162.394531 183.488281 162.152344 C 183.332031 161.980469 183.0625 161.964844 182.835938 161.886719 C 182.164062 161.652344 181.9375 160.835938 182.023438 160.160156 C 182.117188 159.480469 182.433594 158.835938 182.453125 158.152344 C 182.457031 158.015625 182.445312 157.867188 182.351562 157.761719 C 182.277344 157.691406 182.167969 157.652344 182.0625 157.636719 C 181.6875 157.589844 181.3125 157.785156 181.066406 158.054688 C 180.820312 158.320312 180.671875 158.644531 180.535156 158.964844 Z M 180.535156 158.964844 " fill-opacity="1" fill-rule="nonzero"/><g clip-path="url(#6c454c26ab)"><path fill="#ffffff" d="M 177.011719 168.488281 C 177.195312 169.605469 178.160156 170.445312 179.320312 170.445312 C 180.609375 170.445312 181.660156 169.394531 181.660156 168.101562 C 181.660156 168.097656 181.660156 168.09375 181.660156 168.089844 C 182.269531 167.902344 182.929688 167.667969 183.628906 167.386719 C 184.984375 168.304688 186.566406 168.792969 188.222656 168.792969 C 189.757812 168.792969 191.257812 168.363281 192.558594 167.554688 C 194.722656 166.210938 196.160156 163.902344 196.410156 161.378906 C 196.433594 161.121094 196.445312 160.855469 196.445312 160.570312 C 196.445312 160.019531 196.386719 159.46875 196.277344 158.929688 C 198.910156 156.226562 199.945312 153.949219 199.113281 152.667969 C 198.207031 151.28125 195.429688 151.414062 191.480469 153.023438 C 191.320312 152.953125 191.164062 152.890625 191.011719 152.835938 C 190.125 152.511719 189.183594 152.347656 188.222656 152.347656 C 184.359375 152.347656 180.988281 155.078125 180.1875 158.84375 C 180.179688 158.859375 180.171875 158.875 180.164062 158.890625 L 180.171875 158.894531 C 180.074219 159.367188 180.023438 159.84375 180.007812 160.316406 C 176.539062 163.5 175.035156 166.269531 175.992188 167.742188 C 176.214844 168.082031 176.558594 168.328125 177.011719 168.488281 Z M 179.320312 169.707031 C 178.46875 169.707031 177.769531 169.042969 177.722656 168.195312 L 177.714844 168.144531 C 177.714844 168.128906 177.714844 168.117188 177.714844 168.101562 C 177.714844 167.21875 178.433594 166.5 179.320312 166.5 C 180.113281 166.5 180.792969 167.089844 180.902344 167.878906 C 180.914062 167.953125 180.921875 168.027344 180.921875 168.101562 C 180.921875 168.988281 180.203125 169.707031 179.320312 169.707031 Z M 180.894531 159.074219 C 181.015625 158.789062 181.144531 158.515625 181.339844 158.304688 C 181.53125 158.09375 181.796875 157.980469 182.011719 158.003906 C 182.050781 158.007812 182.074219 158.019531 182.074219 158.015625 C 182.082031 158.027344 182.085938 158.0625 182.085938 158.140625 C 182.074219 158.484375 181.976562 158.828125 181.871094 159.191406 C 181.789062 159.484375 181.703125 159.789062 181.65625 160.109375 C 181.550781 160.921875 181.835938 161.929688 182.714844 162.238281 C 182.789062 162.261719 182.867188 162.28125 182.945312 162.300781 C 183.046875 162.328125 183.175781 162.359375 183.210938 162.402344 C 183.246094 162.441406 183.242188 162.574219 183.242188 162.691406 C 183.238281 162.835938 183.238281 162.996094 183.28125 163.164062 C 183.394531 163.578125 183.753906 163.894531 184.320312 164.082031 C 184.410156 164.113281 184.503906 164.140625 184.597656 164.167969 C 184.839844 164.238281 185.066406 164.304688 185.234375 164.421875 C 185.527344 164.636719 185.636719 165.015625 185.761719 165.453125 C 185.773438 165.492188 185.789062 165.53125 185.800781 165.570312 C 185.128906 165.910156 184.433594 166.238281 183.722656 166.542969 C 181.851562 165.125 180.738281 162.910156 180.738281 160.570312 L 180.738281 160.492188 C 180.742188 160.023438 180.796875 159.546875 180.894531 159.074219 Z M 188.925781 164.660156 C 188.921875 164.824219 188.914062 164.984375 188.890625 165.136719 C 188.820312 165.660156 188.542969 166.28125 187.988281 166.472656 C 187.621094 166.601562 187.164062 166.492188 186.902344 166.210938 C 186.832031 166.132812 186.769531 166.042969 186.714844 165.929688 C 187.441406 165.542969 188.183594 165.117188 188.925781 164.660156 Z M 184.449219 167.03125 C 184.996094 166.785156 185.53125 166.53125 186.054688 166.265625 C 186.128906 166.417969 186.226562 166.574219 186.359375 166.714844 C 186.6875 167.070312 187.179688 167.265625 187.667969 167.265625 C 187.859375 167.265625 188.050781 167.234375 188.230469 167.171875 C 189.101562 166.871094 189.519531 165.976562 189.625 165.242188 C 189.675781 164.886719 189.671875 164.539062 189.660156 164.199219 C 189.777344 164.125 189.898438 164.054688 190.011719 163.976562 C 192.148438 162.585938 194.078125 161.070312 195.636719 159.566406 C 195.679688 159.898438 195.707031 160.234375 195.707031 160.570312 C 195.707031 160.714844 195.703125 160.855469 195.695312 160.992188 C 195.09375 161.082031 194.453125 161.429688 194.125 161.878906 C 193.992188 162.058594 193.898438 162.25 193.804688 162.433594 C 193.6875 162.664062 193.578125 162.882812 193.421875 163.023438 C 193.308594 163.125 193.152344 163.203125 192.988281 163.285156 C 192.796875 163.382812 192.574219 163.492188 192.382812 163.664062 C 192.078125 163.945312 191.886719 164.371094 191.839844 164.863281 C 191.800781 165.273438 191.863281 165.671875 191.921875 166.023438 C 191.929688 166.089844 191.917969 166.253906 191.90625 166.386719 C 191.886719 166.617188 191.867188 166.859375 191.902344 167.078125 C 190.78125 167.710938 189.515625 168.050781 188.222656 168.050781 C 186.878906 168.050781 185.585938 167.699219 184.449219 167.03125 Z M 192.628906 166.613281 C 192.636719 166.550781 192.640625 166.496094 192.644531 166.449219 C 192.660156 166.25 192.675781 166.0625 192.652344 165.910156 C 192.601562 165.585938 192.546875 165.25 192.578125 164.933594 C 192.59375 164.753906 192.65625 164.421875 192.882812 164.210938 C 192.996094 164.109375 193.15625 164.03125 193.320312 163.945312 C 193.511719 163.851562 193.726562 163.746094 193.914062 163.578125 C 194.179688 163.339844 194.332031 163.035156 194.46875 162.765625 C 194.550781 162.601562 194.625 162.445312 194.722656 162.316406 C 194.902344 162.070312 195.261719 161.859375 195.613281 161.765625 C 195.296875 163.695312 194.214844 165.453125 192.628906 166.613281 Z M 198.492188 153.070312 C 199.074219 153.96875 198.144531 155.863281 196.0625 158.085938 C 195.449219 156.152344 194.121094 154.496094 192.363281 153.472656 C 195.503906 152.285156 197.871094 152.117188 198.492188 153.070312 Z M 195.464844 158.695312 C 193.894531 160.265625 191.890625 161.867188 189.644531 163.332031 C 189.648438 163.265625 189.644531 163.203125 189.648438 163.136719 C 189.675781 162.722656 189.800781 161.96875 190.359375 161.621094 C 190.523438 161.515625 190.726562 161.445312 190.9375 161.375 C 191.179688 161.292969 191.425781 161.207031 191.660156 161.0625 C 192.164062 160.75 192.507812 160.199219 192.578125 159.589844 C 192.644531 159.039062 192.488281 158.460938 192.144531 157.972656 C 192.113281 157.925781 192.078125 157.882812 192.046875 157.835938 C 191.980469 157.746094 191.917969 157.660156 191.890625 157.59375 C 191.859375 157.515625 191.847656 157.414062 191.835938 157.304688 C 191.8125 157.089844 191.785156 156.820312 191.597656 156.585938 C 191.4375 156.390625 191.113281 156.160156 190.472656 156.203125 L 190.304688 156.210938 C 190.09375 156.226562 189.890625 156.242188 189.75 156.183594 C 189.523438 156.085938 189.429688 155.765625 189.472656 155.515625 C 189.527344 155.171875 189.757812 154.851562 189.976562 154.542969 C 190.042969 154.453125 190.25 154.308594 190.414062 154.195312 C 190.65625 154.027344 190.902344 153.855469 191.0625 153.648438 C 191.148438 153.683594 191.234375 153.71875 191.320312 153.761719 C 193.375 154.695312 194.90625 156.53125 195.464844 158.695312 Z M 188.222656 153.089844 C 188.925781 153.089844 189.613281 153.1875 190.277344 153.378906 C 190.179688 153.457031 190.070312 153.53125 189.992188 153.585938 C 189.746094 153.757812 189.515625 153.917969 189.375 154.113281 C 189.132812 154.457031 188.828125 154.882812 188.742188 155.390625 C 188.648438 155.929688 188.867188 156.609375 189.464844 156.863281 C 189.769531 156.992188 190.082031 156.96875 190.355469 156.949219 L 190.515625 156.941406 C 190.765625 156.925781 190.953125 156.96875 191.019531 157.050781 C 191.074219 157.117188 191.085938 157.242188 191.101562 157.386719 C 191.117188 157.527344 191.136719 157.691406 191.199219 157.859375 C 191.265625 158.023438 191.363281 158.15625 191.449219 158.277344 C 191.480469 158.3125 191.507812 158.351562 191.535156 158.394531 C 191.777344 158.738281 191.886719 159.132812 191.84375 159.503906 C 191.800781 159.890625 191.585938 160.238281 191.269531 160.433594 C 191.105469 160.535156 190.910156 160.601562 190.699219 160.671875 C 190.453125 160.757812 190.203125 160.84375 189.964844 160.992188 C 189.34375 161.382812 188.96875 162.128906 188.910156 163.09375 C 188.894531 163.335938 188.902344 163.574219 188.90625 163.800781 C 188.085938 164.316406 187.269531 164.792969 186.464844 165.222656 C 186.324219 164.730469 186.15625 164.179688 185.667969 163.824219 C 185.398438 163.628906 185.082031 163.535156 184.800781 163.457031 C 184.71875 163.429688 184.632812 163.40625 184.550781 163.378906 C 184.242188 163.277344 184.039062 163.128906 183.996094 162.972656 C 183.980469 162.90625 183.980469 162.808594 183.980469 162.703125 C 183.988281 162.476562 183.992188 162.164062 183.761719 161.90625 C 183.578125 161.699219 183.324219 161.636719 183.125 161.585938 C 183.066406 161.570312 183.011719 161.554688 182.957031 161.539062 C 182.492188 161.375 182.320312 160.746094 182.390625 160.207031 C 182.429688 159.941406 182.503906 159.675781 182.585938 159.394531 C 182.695312 159.003906 182.8125 158.597656 182.824219 158.164062 C 182.828125 158.046875 182.835938 157.742188 182.613281 157.5 C 182.488281 157.378906 182.316406 157.296875 182.109375 157.269531 C 181.898438 157.242188 181.683594 157.273438 181.476562 157.347656 C 182.695312 154.800781 185.300781 153.089844 188.222656 153.089844 Z M 180.035156 161.304688 C 180.230469 163.457031 181.277344 165.460938 182.9375 166.863281 C 182.445312 167.054688 181.976562 167.214844 181.539062 167.351562 C 181.222656 166.421875 180.335938 165.757812 179.320312 165.757812 C 178.167969 165.757812 177.210938 166.59375 177.015625 167.6875 C 176.839844 167.59375 176.703125 167.480469 176.613281 167.339844 C 175.9375 166.304688 177.304688 163.921875 180.035156 161.304688 Z M 180.035156 161.304688 " fill-opacity="1" fill-rule="nonzero"/></g><path fill="#ffffff" d="M 183.710938 158.007812 C 183.910156 158.171875 184.136719 158.261719 184.367188 158.261719 C 184.429688 158.261719 184.492188 158.253906 184.550781 158.242188 C 184.941406 158.164062 185.269531 157.839844 185.433594 157.378906 C 185.488281 157.214844 185.523438 157.050781 185.558594 156.894531 C 185.585938 156.753906 185.617188 156.621094 185.65625 156.5 C 185.761719 156.203125 185.960938 155.945312 186.222656 155.777344 C 186.265625 155.75 186.308594 155.722656 186.351562 155.699219 C 186.523438 155.601562 186.71875 155.488281 186.867188 155.289062 C 187.082031 155.003906 187.109375 154.644531 186.945312 154.347656 C 186.78125 154.050781 186.464844 153.882812 186.109375 153.914062 C 185.554688 153.960938 184.964844 154.296875 184.601562 154.59375 C 184.199219 154.921875 183.847656 155.367188 183.5625 155.925781 C 183.390625 156.261719 183.175781 156.765625 183.28125 157.296875 C 183.339844 157.570312 183.492188 157.828125 183.710938 158.007812 Z M 184.21875 156.265625 C 184.460938 155.800781 184.746094 155.429688 185.070312 155.167969 C 185.355469 154.933594 185.808594 154.683594 186.171875 154.652344 C 186.234375 154.648438 186.277344 154.667969 186.300781 154.707031 C 186.320312 154.746094 186.3125 154.796875 186.277344 154.84375 C 186.21875 154.921875 186.109375 154.984375 185.984375 155.058594 C 185.929688 155.085938 185.875 155.117188 185.820312 155.15625 C 185.421875 155.414062 185.113281 155.808594 184.960938 156.257812 C 184.902344 156.421875 184.867188 156.582031 184.832031 156.742188 C 184.804688 156.882812 184.777344 157.015625 184.734375 157.132812 C 184.660156 157.339844 184.53125 157.492188 184.40625 157.515625 C 184.3125 157.535156 184.226562 157.476562 184.183594 157.441406 C 184.097656 157.367188 184.03125 157.257812 184.007812 157.148438 C 183.960938 156.917969 184.027344 156.636719 184.21875 156.265625 Z M 184.21875 156.265625 " fill-opacity="1" fill-rule="nonzero"/><path fill="#ffffff" d="M 188.105469 155.054688 C 188.621094 155.054688 189.035156 154.636719 189.035156 154.125 C 189.035156 153.613281 188.621094 153.195312 188.105469 153.195312 C 187.59375 153.195312 187.179688 153.613281 187.179688 154.125 C 187.179688 154.636719 187.59375 155.054688 188.105469 155.054688 Z M 188.105469 153.9375 C 188.210938 153.9375 188.296875 154.023438 188.296875 154.125 C 188.296875 154.226562 188.210938 154.3125 188.105469 154.3125 C 188.003906 154.3125 187.917969 154.226562 187.917969 154.125 C 187.917969 154.023438 188.003906 153.9375 188.105469 153.9375 Z M 188.105469 153.9375 " fill-opacity="1" fill-rule="nonzero"/><g clip-path="url(#bb85e106e3)"><g clip-path="url(#649ac50059)"><g clip-path="url(#6b416372b6)"><path fill="#ffffff" d="M 143.421875 183.929688 C 143.496094 186.234375 145.433594 188.046875 147.738281 187.96875 C 150.042969 187.890625 151.855469 185.957031 151.777344 183.652344 C 151.699219 181.347656 149.761719 179.535156 147.457031 179.613281 C 145.15625 179.691406 143.34375 181.628906 143.421875 183.929688 Z M 151.96875 183.644531 C 152.007812 184.8125 151.589844 185.925781 150.792969 186.777344 C 149.992188 187.628906 148.910156 188.121094 147.746094 188.160156 C 146.578125 188.199219 145.464844 187.78125 144.613281 186.984375 C 143.757812 186.1875 143.269531 185.105469 143.230469 183.9375 C 143.191406 182.769531 143.609375 181.65625 144.40625 180.804688 C 145.203125 179.953125 146.285156 179.460938 147.453125 179.421875 C 148.617188 179.382812 149.730469 179.800781 150.585938 180.597656 C 151.4375 181.394531 151.929688 182.476562 151.96875 183.644531 Z M 151.96875 183.644531 " fill-opacity="1" fill-rule="evenodd"/></g></g></g><g clip-path="url(#ac71315cf9)"><g clip-path="url(#17054a3925)"><g clip-path="url(#03a013e8e3)"><path fill="#ffffff" d="M 145.070312 185.074219 C 145.085938 185.644531 145.011719 186.230469 144.722656 186.910156 C 144.703125 186.960938 144.644531 186.980469 144.597656 186.960938 C 144.550781 186.941406 144.527344 186.886719 144.546875 186.835938 C 145.03125 185.691406 144.894531 184.859375 144.722656 183.808594 C 144.585938 182.960938 144.429688 182 144.570312 180.667969 C 144.578125 180.617188 144.625 180.578125 144.675781 180.582031 C 144.730469 180.589844 144.765625 180.636719 144.761719 180.6875 C 144.621094 181.996094 144.777344 182.941406 144.914062 183.777344 C 144.984375 184.222656 145.054688 184.644531 145.070312 185.074219 Z M 146.296875 185.667969 C 146.3125 186.21875 146.222656 186.855469 145.890625 187.707031 C 145.871094 187.757812 145.8125 187.78125 145.765625 187.761719 C 145.714844 187.742188 145.691406 187.6875 145.710938 187.636719 C 146.277344 186.199219 146.121094 185.4375 145.945312 184.558594 C 145.84375 184.050781 145.734375 183.527344 145.753906 182.832031 C 145.753906 182.78125 145.796875 182.738281 145.851562 182.738281 C 145.902344 182.742188 145.945312 182.785156 145.945312 182.835938 C 145.925781 183.511719 146.03125 184.023438 146.132812 184.519531 C 146.207031 184.894531 146.28125 185.257812 146.296875 185.667969 Z M 146.238281 180.488281 C 146.246094 180.707031 146.230469 180.917969 146.199219 181.121094 C 146.191406 181.171875 146.140625 181.207031 146.089844 181.199219 C 146.039062 181.191406 146.003906 181.144531 146.011719 181.089844 C 146.074219 180.695312 146.058594 180.28125 145.964844 179.820312 C 145.953125 179.769531 145.984375 179.71875 146.039062 179.707031 C 146.089844 179.699219 146.140625 179.730469 146.148438 179.78125 C 146.199219 180.027344 146.230469 180.261719 146.238281 180.488281 Z M 147.925781 181.6875 C 147.972656 183.003906 147.808594 183.789062 147.660156 184.503906 C 147.460938 185.445312 147.292969 186.257812 147.652344 188.046875 C 147.660156 188.101562 147.628906 188.152344 147.578125 188.160156 C 147.523438 188.171875 147.472656 188.136719 147.464844 188.085938 C 147.097656 186.253906 147.269531 185.425781 147.472656 184.464844 C 147.6875 183.4375 147.929688 182.273438 147.527344 179.527344 C 147.519531 179.476562 147.554688 179.429688 147.609375 179.421875 C 147.660156 179.414062 147.707031 179.449219 147.714844 179.5 C 147.84375 180.371094 147.90625 181.085938 147.925781 181.6875 Z M 149.199219 186.136719 C 149.199219 186.148438 149.199219 186.160156 149.191406 186.175781 C 148.976562 186.703125 148.839844 187.132812 149.023438 187.832031 C 149.039062 187.882812 149.007812 187.933594 148.957031 187.949219 C 148.90625 187.960938 148.851562 187.929688 148.839844 187.878906 C 148.640625 187.128906 148.796875 186.648438 149.015625 186.101562 C 149.035156 186.054688 149.089844 186.03125 149.140625 186.050781 C 149.175781 186.066406 149.199219 186.097656 149.199219 186.136719 Z M 149.585938 184.371094 C 149.585938 184.410156 149.589844 184.449219 149.589844 184.484375 C 149.589844 184.539062 149.546875 184.582031 149.492188 184.582031 C 149.441406 184.582031 149.398438 184.539062 149.398438 184.488281 C 149.394531 184.109375 149.335938 183.703125 149.214844 183.242188 C 148.964844 182.285156 148.816406 180.746094 149.039062 179.777344 C 149.050781 179.726562 149.101562 179.695312 149.15625 179.707031 C 149.207031 179.71875 149.238281 179.769531 149.226562 179.820312 C 149.011719 180.761719 149.15625 182.257812 149.398438 183.191406 C 149.511719 183.625 149.574219 184.011719 149.585938 184.371094 Z M 151.054688 186.078125 C 151.058594 186.191406 151.058594 186.3125 151.050781 186.441406 C 151.050781 186.496094 151.007812 186.535156 150.953125 186.535156 C 150.902344 186.53125 150.859375 186.488281 150.863281 186.433594 C 150.886719 185.75 150.773438 185.269531 150.660156 184.800781 C 150.535156 184.269531 150.40625 183.722656 150.496094 182.90625 C 150.589844 182.0625 150.644531 181.429688 150.621094 180.867188 C 150.617188 180.8125 150.660156 180.769531 150.710938 180.769531 C 150.761719 180.765625 150.808594 180.804688 150.808594 180.859375 C 150.835938 181.433594 150.78125 182.074219 150.6875 182.929688 C 150.601562 183.710938 150.71875 184.21875 150.847656 184.757812 C 150.941406 185.148438 151.035156 185.554688 151.054688 186.078125 Z M 151.054688 186.078125 " fill-opacity="1" fill-rule="evenodd"/></g></g></g><g clip-path="url(#54c8311eff)"><g clip-path="url(#d6363fcddf)"><g clip-path="url(#a37c83166b)"><path fill="#ffffff" d="M 148.859375 185.382812 C 148.871094 185.820312 149.132812 186.167969 149.4375 186.15625 C 149.742188 186.148438 149.980469 185.785156 149.964844 185.347656 C 149.949219 184.910156 149.691406 184.5625 149.386719 184.574219 C 149.078125 184.582031 148.84375 184.945312 148.859375 185.382812 Z M 150.15625 185.339844 C 150.175781 185.882812 149.855469 186.335938 149.445312 186.347656 C 149.035156 186.363281 148.683594 185.933594 148.667969 185.390625 C 148.648438 184.847656 148.96875 184.394531 149.378906 184.382812 C 149.789062 184.367188 150.136719 184.796875 150.15625 185.339844 Z M 150.15625 185.339844 " fill-opacity="1" fill-rule="evenodd"/></g></g></g><g clip-path="url(#5cbeffe041)"><g clip-path="url(#bfaacc6a3a)"><g clip-path="url(#62a76d3fe4)"><path fill="#ffffff" d="M 145.378906 181.976562 C 145.390625 182.414062 145.652344 182.757812 145.957031 182.75 C 146.265625 182.738281 146.5 182.375 146.484375 181.9375 C 146.472656 181.5 146.210938 181.152344 145.90625 181.164062 C 145.601562 181.175781 145.363281 181.539062 145.378906 181.976562 Z M 146.675781 181.933594 C 146.695312 182.472656 146.375 182.925781 145.964844 182.941406 C 145.554688 182.953125 145.207031 182.523438 145.1875 181.980469 C 145.167969 181.441406 145.488281 180.988281 145.898438 180.972656 C 146.308594 180.960938 146.660156 181.390625 146.675781 181.933594 Z M 146.675781 181.933594 " fill-opacity="1" fill-rule="evenodd"/></g></g></g><g fill="#ffffff" fill-opacity="1"><g transform="translate(110.729902, 260.664417)"><g><path d="M 11.078125 -26.453125 L 10.09375 -26.53125 C 9.257812 -26.53125 8.691406 -26.070312 8.390625 -25.15625 C 8.128906 -24.351562 8 -22.960938 8 -20.984375 L 8 -10.84375 C 8 -8.945312 8.132812 -7.582031 8.40625 -6.75 C 8.675781 -5.925781 9.0625 -5.171875 9.5625 -4.484375 C 10.0625 -3.804688 10.648438 -3.226562 11.328125 -2.75 C 12.671875 -1.789062 14.191406 -1.3125 15.890625 -1.3125 C 17.597656 -1.3125 19.003906 -1.507812 20.109375 -1.90625 C 21.222656 -2.3125 22.109375 -2.921875 22.765625 -3.734375 C 23.984375 -5.210938 24.59375 -7.617188 24.59375 -10.953125 L 24.546875 -20.984375 C 24.546875 -22.992188 24.445312 -24.304688 24.25 -24.921875 C 24.0625 -25.546875 23.832031 -25.96875 23.5625 -26.1875 C 23.300781 -26.414062 22.957031 -26.53125 22.53125 -26.53125 L 21.53125 -26.453125 C 21.039062 -26.453125 20.796875 -26.648438 20.796875 -27.046875 C 20.796875 -27.554688 21.171875 -27.8125 21.921875 -27.8125 C 22.671875 -27.8125 23.328125 -27.753906 23.890625 -27.640625 C 24.453125 -27.535156 25.039062 -27.484375 25.65625 -27.484375 L 29.046875 -27.8125 C 29.921875 -27.8125 30.359375 -27.554688 30.359375 -27.046875 C 30.359375 -26.648438 30.109375 -26.453125 29.609375 -26.453125 L 28.625 -26.53125 C 27.789062 -26.53125 27.238281 -26.070312 26.96875 -25.15625 C 26.738281 -24.363281 26.625 -22.972656 26.625 -20.984375 L 26.578125 -9.90625 C 26.578125 -6.851562 25.609375 -4.359375 23.671875 -2.421875 C 21.710938 -0.460938 19.109375 0.515625 15.859375 0.515625 C 12.316406 0.515625 9.519531 -0.460938 7.46875 -2.421875 C 5.375 -4.441406 4.328125 -7.25 4.328125 -10.84375 L 4.328125 -20.984375 C 4.328125 -22.960938 4.222656 -24.269531 4.015625 -24.90625 C 3.816406 -25.539062 3.578125 -25.96875 3.296875 -26.1875 C 3.023438 -26.414062 2.671875 -26.53125 2.234375 -26.53125 L 1.234375 -26.453125 C 0.742188 -26.453125 0.5 -26.648438 0.5 -27.046875 C 0.5 -27.554688 0.875 -27.8125 1.625 -27.8125 C 2.382812 -27.8125 3.125 -27.753906 3.84375 -27.640625 C 4.570312 -27.535156 5.335938 -27.484375 6.140625 -27.484375 C 6.941406 -27.484375 7.710938 -27.535156 8.453125 -27.640625 C 9.203125 -27.753906 9.945312 -27.8125 10.6875 -27.8125 C 11.4375 -27.8125 11.8125 -27.554688 11.8125 -27.046875 C 11.8125 -26.648438 11.566406 -26.453125 11.078125 -26.453125 Z M 11.078125 -26.453125 "/></g></g></g><g fill="#ffffff" fill-opacity="1"><g transform="translate(138.758667, 260.664417)"><g><path d="M 2.484375 0.3125 C 1.578125 0.3125 1.125 0.0546875 1.125 -0.453125 C 1.125 -0.847656 1.378906 -1.046875 1.890625 -1.046875 L 2.96875 -0.9375 C 3.289062 -0.9375 3.550781 -0.992188 3.75 -1.109375 C 3.957031 -1.234375 4.113281 -1.484375 4.21875 -1.859375 C 4.4375 -2.554688 4.546875 -4.101562 4.546875 -6.5 L 4.546875 -12.640625 C 4.546875 -14.015625 4.453125 -14.875 4.265625 -15.21875 C 4.085938 -15.570312 3.867188 -15.8125 3.609375 -15.9375 C 3.347656 -16.070312 2.941406 -16.179688 2.390625 -16.265625 C 1.847656 -16.359375 1.578125 -16.578125 1.578125 -16.921875 C 1.578125 -17.234375 1.925781 -17.457031 2.625 -17.59375 C 4.382812 -17.96875 5.5625 -18.316406 6.15625 -18.640625 C 6.957031 -19.109375 7.507812 -19.34375 7.8125 -19.34375 C 8.125 -19.34375 8.28125 -19.1875 8.28125 -18.875 C 8.28125 -18.71875 8.253906 -18.554688 8.203125 -18.390625 C 7.941406 -17.734375 7.789062 -16.675781 7.75 -15.21875 C 8.53125 -16.539062 9.503906 -17.554688 10.671875 -18.265625 C 11.835938 -18.984375 12.992188 -19.34375 14.140625 -19.34375 C 15.285156 -19.34375 16.253906 -19.195312 17.046875 -18.90625 C 17.835938 -18.625 18.515625 -18.1875 19.078125 -17.59375 C 20.222656 -16.363281 20.796875 -14.550781 20.796875 -12.15625 L 20.796875 -6.5 C 20.796875 -4.101562 20.875 -2.632812 21.03125 -2.09375 C 21.195312 -1.5625 21.382812 -1.234375 21.59375 -1.109375 C 21.800781 -0.992188 22.0625 -0.9375 22.375 -0.9375 L 23.4375 -1.046875 C 23.945312 -1.046875 24.203125 -0.847656 24.203125 -0.453125 C 24.203125 0.0546875 23.742188 0.3125 22.828125 0.3125 C 22.296875 0.3125 21.726562 0.257812 21.125 0.15625 C 20.53125 0.0507812 19.894531 0 19.21875 0 C 18.550781 0 17.90625 0.0507812 17.28125 0.15625 C 16.664062 0.257812 16.09375 0.3125 15.5625 0.3125 C 14.644531 0.3125 14.1875 0.0546875 14.1875 -0.453125 C 14.1875 -0.847656 14.441406 -1.046875 14.953125 -1.046875 L 16.015625 -0.9375 C 16.328125 -0.9375 16.585938 -0.992188 16.796875 -1.109375 C 17.003906 -1.234375 17.164062 -1.484375 17.28125 -1.859375 C 17.5 -2.546875 17.609375 -4.09375 17.609375 -6.5 L 17.609375 -11.171875 C 17.609375 -15.085938 16.1875 -17.046875 13.34375 -17.046875 C 11.34375 -17.046875 9.78125 -16.132812 8.65625 -14.3125 C 8.257812 -13.644531 7.953125 -12.828125 7.734375 -11.859375 L 7.734375 -6.5 C 7.734375 -4.101562 7.8125 -2.632812 7.96875 -2.09375 C 8.132812 -1.5625 8.320312 -1.234375 8.53125 -1.109375 C 8.738281 -0.992188 9 -0.9375 9.3125 -0.9375 L 10.390625 -1.046875 C 10.898438 -1.046875 11.15625 -0.847656 11.15625 -0.453125 C 11.15625 0.0546875 10.703125 0.3125 9.796875 0.3125 C 9.285156 0.3125 8.738281 0.257812 8.15625 0.15625 C 7.570312 0.0507812 6.914062 0 6.1875 0 C 5.46875 0 4.800781 0.0507812 4.1875 0.15625 C 3.582031 0.257812 3.015625 0.3125 2.484375 0.3125 Z M 2.484375 0.3125 "/></g></g></g><g fill="#ffffff" fill-opacity="1"><g transform="translate(160.450518, 260.664417)"><g><path d="M 8.390625 -25.453125 C 8.390625 -24.878906 8.191406 -24.390625 7.796875 -23.984375 C 7.410156 -23.578125 6.882812 -23.375 6.21875 -23.375 C 5.5625 -23.375 5.050781 -23.566406 4.6875 -23.953125 C 4.320312 -24.347656 4.140625 -24.773438 4.140625 -25.234375 C 4.140625 -25.691406 4.203125 -26.039062 4.328125 -26.28125 C 4.453125 -26.53125 4.609375 -26.742188 4.796875 -26.921875 C 5.222656 -27.296875 5.738281 -27.484375 6.34375 -27.484375 C 6.957031 -27.484375 7.453125 -27.289062 7.828125 -26.90625 C 8.203125 -26.519531 8.390625 -26.035156 8.390625 -25.453125 Z M 2.75 0.3125 C 1.832031 0.3125 1.375 0.0546875 1.375 -0.453125 C 1.375 -0.847656 1.628906 -1.046875 2.140625 -1.046875 L 3.15625 -0.9375 C 3.46875 -0.9375 3.726562 -0.992188 3.9375 -1.109375 C 4.144531 -1.234375 4.3125 -1.484375 4.4375 -1.859375 C 4.65625 -2.546875 4.765625 -4.09375 4.765625 -6.5 L 4.765625 -12.671875 C 4.765625 -14.023438 4.671875 -14.882812 4.484375 -15.25 C 4.296875 -15.613281 4.082031 -15.859375 3.84375 -15.984375 C 3.613281 -16.117188 3.226562 -16.222656 2.6875 -16.296875 C 2.15625 -16.367188 1.890625 -16.582031 1.890625 -16.9375 C 1.890625 -17.25 2.242188 -17.484375 2.953125 -17.640625 C 4.578125 -17.960938 5.695312 -18.296875 6.3125 -18.640625 C 7.164062 -19.117188 7.75 -19.359375 8.0625 -19.359375 C 8.375 -19.359375 8.53125 -19.203125 8.53125 -18.890625 C 8.53125 -18.734375 8.503906 -18.578125 8.453125 -18.421875 C 8.140625 -17.472656 7.984375 -15.613281 7.984375 -12.84375 L 7.984375 -6.5 C 7.984375 -4.09375 8.066406 -2.625 8.234375 -2.09375 C 8.398438 -1.5625 8.585938 -1.234375 8.796875 -1.109375 C 9.003906 -0.992188 9.265625 -0.9375 9.578125 -0.9375 L 10.609375 -1.046875 C 11.109375 -1.046875 11.359375 -0.847656 11.359375 -0.453125 C 11.359375 0.0546875 10.898438 0.3125 9.984375 0.3125 C 9.460938 0.3125 8.90625 0.257812 8.3125 0.15625 C 7.71875 0.0507812 7.078125 0 6.390625 0 C 5.710938 0 5.066406 0.0507812 4.453125 0.15625 C 3.835938 0.257812 3.269531 0.3125 2.75 0.3125 Z M 2.75 0.3125 "/></g></g></g><g fill="#ffffff" fill-opacity="1"><g transform="translate(169.591588, 260.664417)"><g><path d="M 20.46875 -19.171875 C 21.03125 -19.171875 21.3125 -19 21.3125 -18.65625 C 21.3125 -18.375 21.050781 -18.140625 20.53125 -17.953125 C 20.007812 -17.765625 19.617188 -17.59375 19.359375 -17.4375 C 19.109375 -17.28125 18.863281 -17.050781 18.625 -16.75 C 18.207031 -16.226562 17.664062 -15.21875 17 -13.71875 L 10.78125 -0.078125 C 10.59375 0.316406 10.410156 0.515625 10.234375 0.515625 C 9.960938 0.515625 9.742188 0.316406 9.578125 -0.078125 L 2.6875 -15.3125 C 2.28125 -16.1875 1.972656 -16.765625 1.765625 -17.046875 C 1.410156 -17.460938 0.929688 -17.742188 0.328125 -17.890625 C -0.273438 -18.046875 -0.578125 -18.3125 -0.578125 -18.6875 C -0.578125 -18.8125 -0.503906 -18.921875 -0.359375 -19.015625 C -0.210938 -19.117188 -0.00390625 -19.171875 0.265625 -19.171875 L 3.453125 -18.953125 C 4.304688 -18.953125 4.953125 -18.976562 5.390625 -19.03125 C 6.160156 -19.125 6.789062 -19.171875 7.28125 -19.171875 C 8.257812 -19.171875 8.75 -18.972656 8.75 -18.578125 C 8.75 -18.171875 8.175781 -17.941406 7.03125 -17.890625 C 6.1875 -17.847656 5.765625 -17.566406 5.765625 -17.046875 C 5.765625 -16.585938 5.914062 -16.046875 6.21875 -15.421875 L 11.09375 -4.671875 L 15.34375 -14.515625 C 15.863281 -15.734375 16.125 -16.535156 16.125 -16.921875 C 16.125 -17.304688 16.023438 -17.550781 15.828125 -17.65625 C 15.640625 -17.769531 15.273438 -17.847656 14.734375 -17.890625 C 14.191406 -17.941406 13.800781 -18.015625 13.5625 -18.109375 C 13.320312 -18.203125 13.203125 -18.359375 13.203125 -18.578125 C 13.203125 -18.972656 13.671875 -19.171875 14.609375 -19.171875 L 18.09375 -18.96875 Z M 20.46875 -19.171875 "/></g></g></g><g fill="#ffffff" fill-opacity="1"><g transform="translate(187.181877, 260.664417)"><g><path d="M 4.15625 -2.296875 C 3.351562 -3.179688 2.734375 -4.222656 2.296875 -5.421875 C 1.867188 -6.628906 1.65625 -7.96875 1.65625 -9.4375 C 1.65625 -10.914062 1.90625 -12.269531 2.40625 -13.5 C 2.914062 -14.726562 3.617188 -15.78125 4.515625 -16.65625 C 6.359375 -18.46875 8.632812 -19.375 11.34375 -19.375 C 13.582031 -19.375 15.394531 -18.640625 16.78125 -17.171875 C 18.09375 -15.742188 18.75 -13.984375 18.75 -11.890625 C 18.75 -11.210938 18.65625 -10.742188 18.46875 -10.484375 C 18.28125 -10.234375 18.050781 -10.082031 17.78125 -10.03125 C 17.507812 -9.988281 17.132812 -9.945312 16.65625 -9.90625 C 16.175781 -9.875 15.59375 -9.835938 14.90625 -9.796875 C 14.226562 -9.753906 13.46875 -9.710938 12.625 -9.671875 C 11.78125 -9.640625 10.921875 -9.59375 10.046875 -9.53125 C 8.035156 -9.414062 6.421875 -9.296875 5.203125 -9.171875 C 5.503906 -5.492188 6.914062 -3.109375 9.4375 -2.015625 C 10.257812 -1.660156 11.132812 -1.484375 12.0625 -1.484375 C 14.03125 -1.484375 15.585938 -2.054688 16.734375 -3.203125 C 17.222656 -3.691406 17.597656 -3.9375 17.859375 -3.9375 C 18.347656 -3.9375 18.59375 -3.644531 18.59375 -3.0625 C 18.59375 -2.757812 18.390625 -2.394531 17.984375 -1.96875 C 17.578125 -1.539062 16.988281 -1.101562 16.21875 -0.65625 C 14.863281 0.125 13.285156 0.515625 11.484375 0.515625 C 9.679688 0.515625 8.207031 0.265625 7.0625 -0.234375 C 5.925781 -0.734375 4.957031 -1.421875 4.15625 -2.296875 Z M 5.171875 -10.6875 C 11.578125 -11.007812 14.953125 -11.359375 15.296875 -11.734375 C 15.421875 -11.867188 15.484375 -12.269531 15.484375 -12.9375 C 15.484375 -13.613281 15.351562 -14.269531 15.09375 -14.90625 C 14.832031 -15.539062 14.484375 -16.082031 14.046875 -16.53125 C 13.140625 -17.445312 12.019531 -17.90625 10.6875 -17.90625 C 9.164062 -17.90625 7.882812 -17.269531 6.84375 -16 C 5.75 -14.664062 5.191406 -12.894531 5.171875 -10.6875 Z M 5.171875 -10.6875 "/></g></g></g><g fill="#ffffff" fill-opacity="1"><g transform="translate(204.526072, 260.664417)"><g><path d="M 2.40625 0.3125 C 1.488281 0.3125 1.03125 0.0546875 1.03125 -0.453125 C 1.03125 -0.847656 1.28125 -1.046875 1.78125 -1.046875 L 2.8125 -0.9375 C 3.125 -0.9375 3.378906 -0.992188 3.578125 -1.109375 C 3.785156 -1.234375 3.945312 -1.484375 4.0625 -1.859375 C 4.28125 -2.554688 4.390625 -4.101562 4.390625 -6.5 L 4.390625 -12.640625 C 4.390625 -14.023438 4.300781 -14.890625 4.125 -15.234375 C 3.957031 -15.585938 3.753906 -15.828125 3.515625 -15.953125 C 3.273438 -16.085938 2.882812 -16.195312 2.34375 -16.28125 C 1.800781 -16.363281 1.53125 -16.578125 1.53125 -16.921875 C 1.53125 -17.234375 1.878906 -17.457031 2.578125 -17.59375 C 4.210938 -17.9375 5.335938 -18.28125 5.953125 -18.625 C 6.785156 -19.101562 7.351562 -19.34375 7.65625 -19.34375 C 7.96875 -19.34375 8.125 -19.1875 8.125 -18.875 C 8.125 -18.71875 8.09375 -18.554688 8.03125 -18.390625 C 7.96875 -18.234375 7.898438 -18.035156 7.828125 -17.796875 C 7.722656 -17.335938 7.644531 -16.460938 7.59375 -15.171875 C 8.78125 -17.171875 10.210938 -18.414062 11.890625 -18.90625 C 12.390625 -19.0625 12.941406 -19.140625 13.546875 -19.140625 C 14.148438 -19.140625 14.6875 -18.921875 15.15625 -18.484375 C 15.632812 -18.046875 15.875 -17.578125 15.875 -17.078125 C 15.875 -16.585938 15.816406 -16.222656 15.703125 -15.984375 C 15.597656 -15.753906 15.460938 -15.5625 15.296875 -15.40625 C 14.941406 -15.050781 14.625 -14.875 14.34375 -14.875 C 14.0625 -14.875 13.84375 -14.941406 13.6875 -15.078125 C 13.539062 -15.222656 13.375 -15.488281 13.1875 -15.875 C 12.84375 -16.5625 12.457031 -16.90625 12.03125 -16.90625 C 11.613281 -16.90625 11.210938 -16.8125 10.828125 -16.625 C 10.441406 -16.4375 10.0625 -16.160156 9.6875 -15.796875 C 8.84375 -15.015625 8.132812 -13.953125 7.5625 -12.609375 L 7.5625 -6.5 C 7.5625 -3.90625 7.632812 -2.378906 7.78125 -1.921875 C 7.925781 -1.460938 8.101562 -1.1875 8.3125 -1.09375 C 8.53125 -1.007812 8.820312 -0.96875 9.1875 -0.96875 L 11.015625 -1.125 C 11.285156 -1.125 11.503906 -1.054688 11.671875 -0.921875 C 11.835938 -0.796875 11.921875 -0.640625 11.921875 -0.453125 C 11.921875 0.0546875 11.421875 0.3125 10.421875 0.3125 L 6.09375 0 C 5.394531 0 4.734375 0.0507812 4.109375 0.15625 C 3.484375 0.257812 2.914062 0.3125 2.40625 0.3125 Z M 2.40625 0.3125 "/></g></g></g><g fill="#ffffff" fill-opacity="1"><g transform="translate(217.932768, 260.664417)"><g><path d="M 2.671875 0.3125 C 1.773438 0.3125 1.328125 0.0546875 1.328125 -0.453125 C 1.328125 -0.847656 1.578125 -1.046875 2.078125 -1.046875 L 3.078125 -0.9375 C 3.816406 -0.9375 4.328125 -1.296875 4.609375 -2.015625 C 4.929688 -2.804688 5.09375 -4.300781 5.09375 -6.5 L 5.09375 -20.984375 C 5.09375 -23.273438 4.972656 -24.707031 4.734375 -25.28125 C 4.503906 -25.851562 4.25 -26.207031 3.96875 -26.34375 C 3.695312 -26.488281 3.359375 -26.5625 2.953125 -26.5625 L 2.078125 -26.453125 C 1.578125 -26.453125 1.328125 -26.648438 1.328125 -27.046875 C 1.328125 -27.554688 1.703125 -27.8125 2.453125 -27.8125 C 3.210938 -27.8125 3.867188 -27.753906 4.421875 -27.640625 C 4.984375 -27.535156 5.519531 -27.484375 6.03125 -27.484375 C 6.550781 -27.484375 7.019531 -27.507812 7.4375 -27.5625 C 7.863281 -27.613281 8.3125 -27.671875 8.78125 -27.734375 C 10.09375 -27.910156 11.238281 -28 12.21875 -28 C 13.207031 -28 14.195312 -27.851562 15.1875 -27.5625 C 16.175781 -27.269531 17.023438 -26.859375 17.734375 -26.328125 C 19.242188 -25.222656 20 -23.789062 20 -22.03125 C 20 -19.6875 19.003906 -17.703125 17.015625 -16.078125 C 18.722656 -15.597656 20.160156 -14.640625 21.328125 -13.203125 C 22.546875 -11.710938 23.15625 -10.050781 23.15625 -8.21875 C 23.15625 -5.625 22.289062 -3.519531 20.5625 -1.90625 C 18.84375 -0.289062 16.585938 0.515625 13.796875 0.515625 C 12.921875 0.515625 11.90625 0.453125 10.75 0.328125 C 8.488281 0.109375 6.96875 0 6.1875 0 Z M 8.3125 -16.46875 C 9.84375 -16.320312 11.082031 -16.25 12.03125 -16.25 C 13.414062 -16.25 14.265625 -16.265625 14.578125 -16.296875 C 14.890625 -16.335938 15.175781 -16.472656 15.4375 -16.703125 C 15.695312 -16.941406 15.9375 -17.242188 16.15625 -17.609375 C 16.664062 -18.460938 16.921875 -19.367188 16.921875 -20.328125 C 16.921875 -21.285156 16.753906 -22.128906 16.421875 -22.859375 C 16.097656 -23.585938 15.65625 -24.210938 15.09375 -24.734375 C 13.945312 -25.773438 12.503906 -26.296875 10.765625 -26.296875 C 9.929688 -26.296875 9.144531 -26.148438 8.40625 -25.859375 C 8.363281 -25.171875 8.335938 -24.65625 8.328125 -24.3125 C 8.328125 -23.96875 8.320312 -23.65625 8.3125 -23.375 C 8.3125 -23.101562 8.3125 -22.859375 8.3125 -22.640625 Z M 17.859375 -12.28125 C 17.296875 -12.988281 16.601562 -13.554688 15.78125 -13.984375 C 14.957031 -14.421875 14.175781 -14.640625 13.4375 -14.640625 L 11.203125 -14.640625 C 10.429688 -14.640625 9.46875 -14.609375 8.3125 -14.546875 L 8.3125 -9.453125 C 8.3125 -6.390625 8.359375 -4.03125 8.453125 -2.375 C 9.671875 -1.613281 11.234375 -1.234375 13.140625 -1.234375 C 16.191406 -1.234375 18.195312 -2.328125 19.15625 -4.515625 C 19.46875 -5.253906 19.625 -6.109375 19.625 -7.078125 C 19.625 -8.054688 19.472656 -8.992188 19.171875 -9.890625 C 18.867188 -10.785156 18.429688 -11.582031 17.859375 -12.28125 Z M 17.859375 -12.28125 "/></g></g></g><g fill="#ffffff" fill-opacity="1"><g transform="translate(240.280869, 260.664417)"><g><path d="M 1.5625 -9.109375 C 1.5625 -10.429688 1.800781 -11.710938 2.28125 -12.953125 C 2.757812 -14.203125 3.4375 -15.300781 4.3125 -16.25 C 6.21875 -18.3125 8.601562 -19.34375 11.46875 -19.34375 C 14.632812 -19.34375 17.070312 -18.390625 18.78125 -16.484375 C 20.332031 -14.765625 21.109375 -12.53125 21.109375 -9.78125 C 21.109375 -7.007812 20.179688 -4.609375 18.328125 -2.578125 C 16.441406 -0.515625 14.066406 0.515625 11.203125 0.515625 C 8.023438 0.515625 5.585938 -0.4375 3.890625 -2.34375 C 2.335938 -4.0625 1.5625 -6.316406 1.5625 -9.109375 Z M 5.03125 -9.96875 C 5.03125 -8.625 5.210938 -7.367188 5.578125 -6.203125 C 5.941406 -5.046875 6.445312 -4.085938 7.09375 -3.328125 C 8.363281 -1.765625 9.972656 -0.984375 11.921875 -0.984375 C 13.640625 -0.984375 15.039062 -1.664062 16.125 -3.03125 C 17.238281 -4.457031 17.796875 -6.289062 17.796875 -8.53125 C 17.796875 -11.5 17.113281 -13.820312 15.75 -15.5 C 14.46875 -17.050781 12.851562 -17.828125 10.90625 -17.828125 C 9.1875 -17.828125 7.785156 -17.140625 6.703125 -15.765625 C 5.585938 -14.347656 5.03125 -12.414062 5.03125 -9.96875 Z M 5.03125 -9.96875 "/></g></g></g><g fill="#ffffff" fill-opacity="1"><g transform="translate(259.962955, 260.664417)"><g><path d="M 13.171875 -17.3125 C 13.171875 -16.9375 12.953125 -16.75 12.515625 -16.75 L 6.6875 -16.8125 L 6.6875 -5.453125 C 6.6875 -3.335938 7.195312 -2.082031 8.21875 -1.6875 C 8.539062 -1.5625 8.910156 -1.5 9.328125 -1.5 C 9.753906 -1.5 10.140625 -1.566406 10.484375 -1.703125 C 10.835938 -1.847656 11.148438 -2.003906 11.421875 -2.171875 C 11.691406 -2.335938 11.921875 -2.488281 12.109375 -2.625 C 12.304688 -2.769531 12.488281 -2.84375 12.65625 -2.84375 C 12.832031 -2.84375 12.988281 -2.75 13.125 -2.5625 C 13.257812 -2.375 13.328125 -2.179688 13.328125 -1.984375 C 13.328125 -1.503906 12.71875 -0.929688 11.5 -0.265625 C 10.570312 0.253906 9.40625 0.515625 8 0.515625 C 6.59375 0.515625 5.488281 0.015625 4.6875 -0.984375 C 3.894531 -1.992188 3.5 -3.390625 3.5 -5.171875 L 3.5 -16.875 L 2.25 -16.875 C 1.269531 -16.875 0.78125 -17.128906 0.78125 -17.640625 C 0.78125 -18.003906 1.050781 -18.253906 1.59375 -18.390625 C 2.144531 -18.523438 2.617188 -18.765625 3.015625 -19.109375 C 3.410156 -19.460938 3.734375 -19.863281 3.984375 -20.3125 C 4.242188 -20.757812 4.445312 -21.222656 4.59375 -21.703125 C 4.738281 -22.179688 4.875 -22.617188 5 -23.015625 C 5.300781 -23.910156 5.644531 -24.359375 6.03125 -24.359375 C 6.46875 -24.359375 6.6875 -23.96875 6.6875 -23.1875 L 6.6875 -18.5625 L 12.453125 -18.6875 C 12.734375 -18.6875 12.957031 -18.34375 13.125 -17.65625 C 13.15625 -17.507812 13.171875 -17.394531 13.171875 -17.3125 Z M 13.171875 -17.3125 "/></g></g></g><g clip-path="url(#d1e9a31a3b)"><g clip-path="url(#2b7dcd4947)"><g clip-path="url(#259a16697c)"><path fill="#ffffff" d="M 224.191406 181.652344 C 223.195312 183.535156 223.914062 185.875 225.796875 186.871094 C 227.679688 187.867188 230.019531 187.148438 231.015625 185.265625 C 232.011719 183.382812 231.292969 181.042969 229.410156 180.046875 C 227.527344 179.050781 225.1875 179.769531 224.191406 181.652344 Z M 231.171875 185.347656 C 230.667969 186.300781 229.820312 187 228.792969 187.316406 C 227.761719 187.636719 226.667969 187.53125 225.714844 187.027344 C 224.761719 186.523438 224.0625 185.675781 223.746094 184.648438 C 223.425781 183.617188 223.53125 182.523438 224.035156 181.570312 C 224.539062 180.617188 225.386719 179.917969 226.414062 179.601562 C 227.445312 179.28125 228.539062 179.386719 229.492188 179.890625 C 230.445312 180.394531 231.144531 181.242188 231.460938 182.269531 C 231.78125 183.300781 231.675781 184.394531 231.171875 185.347656 Z M 231.171875 185.347656 " fill-opacity="1" fill-rule="evenodd"/><path fill="#ffffff" d="M 224.988281 183.324219 C 224.742188 183.789062 224.410156 184.226562 223.867188 184.640625 C 223.828125 184.667969 223.773438 184.660156 223.742188 184.621094 C 223.714844 184.582031 223.722656 184.527344 223.761719 184.5 C 224.675781 183.800781 224.949219 183.074219 225.292969 182.152344 C 225.570312 181.410156 225.886719 180.570312 226.613281 179.566406 C 226.640625 179.527344 226.695312 179.519531 226.734375 179.546875 C 226.773438 179.574219 226.785156 179.628906 226.753906 179.671875 C 226.042969 180.652344 225.730469 181.480469 225.457031 182.214844 C 225.3125 182.605469 225.171875 182.972656 224.988281 183.324219 Z M 225.695312 184.367188 C 225.457031 184.816406 225.097656 185.28125 224.4375 185.8125 C 224.398438 185.84375 224.34375 185.835938 224.3125 185.796875 C 224.28125 185.761719 224.289062 185.707031 224.324219 185.675781 C 225.4375 184.78125 225.664062 184.101562 225.925781 183.3125 C 226.078125 182.859375 226.230469 182.394531 226.566406 181.84375 C 226.589844 181.800781 226.644531 181.789062 226.6875 181.8125 C 226.726562 181.839844 226.742188 181.894531 226.714844 181.933594 C 226.390625 182.46875 226.242188 182.925781 226.09375 183.367188 C 225.984375 183.703125 225.875 184.03125 225.695312 184.367188 Z M 228.03125 180.1875 C 227.933594 180.367188 227.828125 180.527344 227.707031 180.675781 C 227.679688 180.714844 227.621094 180.71875 227.585938 180.691406 C 227.546875 180.660156 227.539062 180.605469 227.570312 180.566406 C 227.804688 180.28125 227.980469 179.941406 228.117188 179.527344 C 228.132812 179.480469 228.179688 179.453125 228.226562 179.46875 C 228.273438 179.484375 228.296875 179.535156 228.285156 179.582031 C 228.210938 179.800781 228.128906 180.003906 228.03125 180.1875 Z M 228.832031 181.921875 C 228.261719 183 227.773438 183.550781 227.324219 184.058594 C 226.734375 184.722656 226.226562 185.292969 225.691406 186.894531 C 225.675781 186.941406 225.625 186.964844 225.578125 186.949219 C 225.535156 186.933594 225.507812 186.886719 225.523438 186.839844 C 226.070312 185.203125 226.589844 184.617188 227.191406 183.941406 C 227.835938 183.214844 228.566406 182.394531 229.503906 180.011719 C 229.519531 179.964844 229.574219 179.941406 229.617188 179.960938 C 229.664062 179.980469 229.683594 180.03125 229.667969 180.074219 C 229.371094 180.832031 229.09375 181.433594 228.832031 181.921875 Z M 227.8125 186.074219 C 227.804688 186.082031 227.796875 186.09375 227.789062 186.101562 C 227.371094 186.425781 227.066406 186.707031 226.890625 187.351562 C 226.878906 187.398438 226.832031 187.425781 226.785156 187.414062 C 226.738281 187.402344 226.710938 187.351562 226.722656 187.304688 C 226.90625 186.613281 227.25 186.300781 227.679688 185.960938 C 227.714844 185.933594 227.773438 185.9375 227.800781 185.976562 C 227.824219 186.003906 227.828125 186.042969 227.8125 186.074219 Z M 228.929688 184.835938 C 228.914062 184.867188 228.898438 184.898438 228.878906 184.929688 C 228.855469 184.972656 228.800781 184.988281 228.757812 184.960938 C 228.71875 184.9375 228.703125 184.886719 228.726562 184.84375 C 228.898438 184.539062 229.039062 184.183594 229.152344 183.761719 C 229.390625 182.878906 229.980469 181.578125 230.601562 180.90625 C 230.636719 180.867188 230.691406 180.867188 230.726562 180.898438 C 230.761719 180.933594 230.765625 180.988281 230.730469 181.023438 C 230.128906 181.679688 229.554688 182.945312 229.324219 183.804688 C 229.214844 184.203125 229.085938 184.542969 228.929688 184.835938 Z M 229.324219 186.875 C 229.273438 186.972656 229.21875 187.066406 229.15625 187.167969 C 229.128906 187.210938 229.074219 187.222656 229.035156 187.195312 C 228.992188 187.171875 228.980469 187.117188 229.003906 187.074219 C 229.339844 186.539062 229.46875 186.101562 229.59375 185.675781 C 229.738281 185.191406 229.886719 184.695312 230.332031 184.082031 C 230.792969 183.449219 231.128906 182.964844 231.367188 182.503906 C 231.390625 182.460938 231.441406 182.441406 231.484375 182.464844 C 231.527344 182.488281 231.546875 182.539062 231.523438 182.582031 C 231.28125 183.054688 230.941406 183.546875 230.476562 184.1875 C 230.046875 184.773438 229.910156 185.234375 229.765625 185.726562 C 229.65625 186.082031 229.546875 186.449219 229.324219 186.875 Z M 229.324219 186.875 " fill-opacity="1" fill-rule="evenodd"/></g></g></g><g clip-path="url(#b8569fc9b3)"><g clip-path="url(#ad2fca3bfb)"><g clip-path="url(#8b686f446e)"><path fill="#ffffff" d="M 227.882812 185.3125 C 227.691406 185.671875 227.742188 186.066406 227.992188 186.199219 C 228.242188 186.332031 228.597656 186.148438 228.785156 185.792969 C 228.976562 185.433594 228.925781 185.039062 228.675781 184.90625 C 228.425781 184.773438 228.070312 184.957031 227.882812 185.3125 Z M 228.941406 185.875 C 228.707031 186.316406 228.246094 186.535156 227.910156 186.355469 C 227.574219 186.179688 227.492188 185.671875 227.726562 185.230469 C 227.960938 184.789062 228.425781 184.570312 228.757812 184.75 C 229.09375 184.925781 229.175781 185.433594 228.941406 185.875 Z M 228.941406 185.875 " fill-opacity="1" fill-rule="evenodd"/></g></g></g><g clip-path="url(#eeda08d7da)"><g clip-path="url(#2c06fbbaaa)"><g clip-path="url(#9149046453)"><path fill="#ffffff" d="M 226.65625 180.984375 C 226.46875 181.339844 226.519531 181.738281 226.769531 181.871094 C 227.015625 182.003906 227.375 181.820312 227.5625 181.464844 C 227.75 181.105469 227.703125 180.707031 227.453125 180.578125 C 227.203125 180.445312 226.847656 180.628906 226.65625 180.984375 Z M 227.71875 181.546875 C 227.484375 181.988281 227.019531 182.203125 226.683594 182.027344 C 226.351562 181.847656 226.269531 181.34375 226.503906 180.902344 C 226.738281 180.460938 227.199219 180.242188 227.535156 180.421875 C 227.871094 180.597656 227.953125 181.101562 227.71875 181.546875 Z M 227.71875 181.546875 " fill-opacity="1" fill-rule="evenodd"/></g></g></g><g clip-path="url(#796ac5196e)"><g clip-path="url(#5dbcba674d)"><g clip-path="url(#4cb071a9ab)"><path fill="#ffffff" d="M 187.480469 109.425781 C 185.15625 109.472656 183.304688 111.402344 183.351562 113.726562 C 183.402344 116.050781 185.332031 117.902344 187.65625 117.851562 C 189.976562 117.804688 191.828125 115.875 191.78125 113.550781 C 191.730469 111.226562 189.800781 109.375 187.480469 109.425781 Z M 187.660156 118.042969 C 186.480469 118.070312 185.367188 117.632812 184.515625 116.820312 C 183.667969 116.003906 183.1875 114.90625 183.160156 113.730469 C 183.136719 112.554688 183.570312 111.4375 184.386719 110.589844 C 185.199219 109.738281 186.296875 109.257812 187.476562 109.234375 C 188.652344 109.207031 189.765625 109.644531 190.617188 110.457031 C 191.464844 111.273438 191.949219 112.371094 191.972656 113.546875 C 191.996094 114.722656 191.5625 115.839844 190.746094 116.6875 C 189.933594 117.539062 188.835938 118.019531 187.660156 118.042969 Z M 187.660156 118.042969 " fill-opacity="1" fill-rule="evenodd"/></g></g></g><g clip-path="url(#7540c0187b)"><g clip-path="url(#c52123a88e)"><g clip-path="url(#4785be5148)"><path fill="#ffffff" d="M 186.304688 111.074219 C 185.730469 111.085938 185.140625 111 184.457031 110.699219 C 184.410156 110.679688 184.386719 110.621094 184.410156 110.574219 C 184.429688 110.523438 184.488281 110.503906 184.535156 110.523438 C 185.683594 111.027344 186.523438 110.902344 187.585938 110.742188 C 188.441406 110.613281 189.410156 110.46875 190.753906 110.628906 C 190.804688 110.632812 190.84375 110.683594 190.835938 110.734375 C 190.832031 110.789062 190.78125 110.824219 190.730469 110.820312 C 189.414062 110.660156 188.460938 110.804688 187.617188 110.933594 C 187.164062 111 186.738281 111.0625 186.304688 111.074219 Z M 185.691406 112.300781 C 185.132812 112.3125 184.496094 112.214844 183.640625 111.867188 C 183.59375 111.847656 183.570312 111.789062 183.589844 111.742188 C 183.609375 111.691406 183.664062 111.667969 183.714844 111.6875 C 185.15625 112.277344 185.925781 112.128906 186.816406 111.960938 C 187.328125 111.863281 187.855469 111.765625 188.554688 111.792969 C 188.609375 111.792969 188.652344 111.839844 188.648438 111.890625 C 188.648438 111.945312 188.601562 111.984375 188.550781 111.984375 C 187.867188 111.957031 187.351562 112.054688 186.851562 112.152344 C 186.472656 112.222656 186.105469 112.292969 185.691406 112.300781 Z M 190.914062 112.308594 C 190.691406 112.3125 190.480469 112.296875 190.277344 112.261719 C 190.222656 112.253906 190.1875 112.203125 190.199219 112.152344 C 190.207031 112.097656 190.257812 112.0625 190.308594 112.074219 C 190.703125 112.140625 191.125 112.132812 191.589844 112.039062 C 191.640625 112.03125 191.691406 112.066406 191.703125 112.117188 C 191.710938 112.167969 191.679688 112.21875 191.625 112.230469 C 191.378906 112.277344 191.140625 112.304688 190.914062 112.308594 Z M 189.683594 113.996094 C 188.355469 114.023438 187.566406 113.851562 186.847656 113.691406 C 185.902344 113.480469 185.085938 113.296875 183.273438 113.636719 C 183.222656 113.648438 183.171875 113.613281 183.164062 113.5625 C 183.152344 113.507812 183.1875 113.457031 183.238281 113.449219 C 185.089844 113.101562 185.921875 113.289062 186.890625 113.503906 C 187.921875 113.730469 189.09375 113.992188 191.863281 113.621094 C 191.917969 113.613281 191.964844 113.652344 191.972656 113.703125 C 191.980469 113.757812 191.941406 113.804688 191.890625 113.8125 C 191.011719 113.929688 190.289062 113.984375 189.683594 113.996094 Z M 185.183594 115.222656 C 185.171875 115.222656 185.15625 115.222656 185.144531 115.214844 C 184.613281 114.992188 184.179688 114.847656 183.476562 115.023438 C 183.425781 115.039062 183.375 115.007812 183.359375 114.953125 C 183.347656 114.902344 183.378906 114.851562 183.429688 114.839844 C 184.191406 114.648438 184.671875 114.808594 185.21875 115.039062 C 185.265625 115.058594 185.289062 115.113281 185.269531 115.164062 C 185.253906 115.199219 185.21875 115.222656 185.183594 115.222656 Z M 186.957031 115.636719 C 186.917969 115.636719 186.878906 115.636719 186.839844 115.636719 C 186.789062 115.636719 186.746094 115.59375 186.746094 115.539062 C 186.746094 115.484375 186.789062 115.445312 186.84375 115.445312 C 187.222656 115.445312 187.636719 115.390625 188.101562 115.273438 C 189.066406 115.035156 190.621094 114.90625 191.59375 115.144531 C 191.644531 115.15625 191.675781 115.207031 191.664062 115.257812 C 191.652344 115.3125 191.601562 115.34375 191.546875 115.332031 C 190.605469 115.101562 189.089844 115.226562 188.148438 115.460938 C 187.710938 115.570312 187.320312 115.628906 186.957031 115.636719 Z M 185.21875 117.089844 C 185.101562 117.09375 184.980469 117.09375 184.851562 117.085938 C 184.796875 117.082031 184.757812 117.039062 184.761719 116.984375 C 184.761719 116.933594 184.808594 116.890625 184.859375 116.894531 C 185.550781 116.925781 186.039062 116.820312 186.507812 116.714844 C 187.046875 116.59375 187.601562 116.472656 188.421875 116.570312 C 189.269531 116.675781 189.910156 116.738281 190.476562 116.722656 C 190.53125 116.71875 190.574219 116.761719 190.574219 116.8125 C 190.578125 116.867188 190.535156 116.910156 190.480469 116.914062 C 189.902344 116.929688 189.257812 116.867188 188.398438 116.761719 C 187.609375 116.664062 187.09375 116.78125 186.550781 116.902344 C 186.15625 116.988281 185.746094 117.082031 185.21875 117.089844 Z M 185.21875 117.089844 " fill-opacity="1" fill-rule="evenodd"/></g></g></g><g clip-path="url(#4cb7a34d41)"><g clip-path="url(#20b1a7835a)"><g clip-path="url(#463e687761)"><path fill="#ffffff" d="M 185.945312 114.886719 C 185.503906 114.898438 185.152344 115.15625 185.15625 115.464844 C 185.164062 115.769531 185.527344 116.015625 185.96875 116.003906 C 186.410156 115.996094 186.761719 115.738281 186.757812 115.429688 C 186.75 115.121094 186.386719 114.878906 185.945312 114.886719 Z M 185.972656 116.199219 C 185.425781 116.207031 184.972656 115.882812 184.964844 115.46875 C 184.957031 115.054688 185.394531 114.707031 185.941406 114.695312 C 186.488281 114.683594 186.941406 115.011719 186.949219 115.425781 C 186.957031 115.839844 186.519531 116.1875 185.972656 116.199219 Z M 185.972656 116.199219 " fill-opacity="1" fill-rule="evenodd"/></g></g></g><g clip-path="url(#26acb70cfd)"><g clip-path="url(#41bc8ca90c)"><g clip-path="url(#cdd90b0314)"><path fill="#ffffff" d="M 189.425781 111.421875 C 188.984375 111.433594 188.632812 111.691406 188.636719 112 C 188.644531 112.308594 189.007812 112.550781 189.449219 112.539062 C 189.890625 112.53125 190.242188 112.273438 190.234375 111.964844 C 190.230469 111.65625 189.867188 111.414062 189.425781 111.421875 Z M 189.453125 112.734375 C 188.90625 112.746094 188.453125 112.417969 188.445312 112.003906 C 188.4375 111.589844 188.875 111.242188 189.421875 111.230469 C 189.96875 111.21875 190.417969 111.546875 190.429688 111.960938 C 190.4375 112.375 190 112.722656 189.453125 112.734375 Z M 189.453125 112.734375 " fill-opacity="1" fill-rule="evenodd"/></g></g></g></svg>